<svg width="734" height="452" viewBox="0 0 734 452" fill="none" xmlns="http://www.w3.org/2000/svg">
<path d="M451.54 258.881C451.27 258.231 450.98 257.601 450.69 256.951C450.48 256.471 450.26 255.991 450.04 255.531C443.13 241.021 433.63 227.611 421.69 216.071C411.57 206.291 408.42 206.521 399.88 217.871C395.49 223.771 391.08 229.681 386.68 235.581C375.47 250.631 364.23 265.681 353.01 280.731C346.34 289.661 339.69 298.601 333.04 307.531C326.41 316.521 325.73 316.521 318.43 307.531C310.88 298.341 303.4 289.081 295.83 279.921C293.61 277.211 291.36 274.511 289.1 271.811C283.38 265.071 279.67 265.171 274.27 271.911C270.56 276.411 267.19 281.241 263.71 285.951C256.4 295.851 256.4 298.311 264.05 307.761C266.01 310.181 267.98 312.581 269.94 315.001C279.09 326.251 288.25 337.491 297.39 348.711C303.81 356.571 310.22 364.421 316.63 372.261C326.29 384.061 329.1 384.061 337.97 372.031C343.51 364.521 349.04 357.021 354.57 349.511C363.2 337.821 371.83 326.131 380.47 314.431C389.36 302.401 398.26 290.361 407.19 278.321C409.1 275.741 412.02 274.041 414.49 271.811C415.73 273.531 417.35 275.101 418.64 276.811C419.47 277.881 420.16 279.011 420.57 280.231C431.53 313.771 427.93 344.651 408.71 371.211C408.67 371.271 408.62 371.341 408.57 371.401C405.16 376.091 401.26 380.651 396.86 385.061C390.98 390.961 384.83 396.021 378.42 400.201C378.36 400.241 378.29 400.281 378.21 400.331C359.9 412.251 339.55 417.151 317.86 414.861C309.36 413.981 300.66 411.981 291.79 408.881C281.39 405.221 272 400.111 263.73 393.841C249.38 382.971 238.47 368.671 231.78 352.631C223.11 331.861 221.5 308.191 228.64 285.281C231.69 275.551 236.04 266.601 241.47 258.561C249.64 246.441 260.22 236.421 272.39 228.971C289.82 218.321 310.5 213.011 331.99 214.501C338.62 214.951 345.31 216.061 352.02 217.861C374.95 224.041 371.13 226.961 388.54 202.691C388.99 202.241 389.21 201.681 389.44 201.111C390.31 198.091 391.91 196.281 394.03 195.351C382.35 188.811 369.6 183.941 356.07 180.971C355.35 180.941 354.55 180.841 353.71 180.661C351.49 180.221 349.23 179.701 346.97 179.261C346.96 179.261 346.94 179.251 346.92 179.251C344.17 178.711 341.42 178.271 338.69 178.231C337.89 178.221 337.09 178.241 336.3 178.311C333.34 178.501 330.82 178.281 328.65 177.631C309.31 177.071 290.68 180.411 273.62 187.101C271.76 188.431 269.03 189.171 266.97 190.111C211.01 216.401 177.86 274.491 189.55 339.551C191.46 350.291 194.54 360.481 198.65 370.031C198.92 370.691 199.22 371.331 199.52 371.991C211.46 398.671 231.46 420.161 256.39 434.071C268.07 440.611 280.82 445.481 294.35 448.441C297.26 449.091 300.19 449.641 303.16 450.091C306.04 450.541 308.95 450.921 311.89 451.191C314.2 451.411 316.53 451.581 318.88 451.681C319.82 451.731 320.77 451.761 321.71 451.781C341.08 452.351 359.72 449.021 376.8 442.321C410.16 429.261 437.54 403.411 452.59 368.751C467.84 333.191 466.83 293.201 451.54 258.851V258.881Z" fill="url(#paint0_linear_2651_20)"/>
<path d="M476.41 2.36175C473.49 7.86175 472.03 10.7817 470.45 13.6017C452.13 45.4017 433.71 77.0918 415.73 109.002C413.15 113.832 411.69 119.102 411.45 124.612C410.78 144.272 410.66 164.052 410.78 183.722C410.9 191.472 408.31 195.412 400.11 194.622C397.82 194.412 395.76 194.592 394.02 195.372C382.34 188.832 369.59 183.962 356.06 180.992C359.96 181.172 362.12 179.222 362.12 174.392C362.24 155.852 362.46 137.432 362.12 118.772C362 114.842 359.54 110.682 357.52 106.972C339.87 75.5117 322.12 44.1517 304.48 12.6917C302.9 9.77173 301.66 6.73172 299.31 1.90172C317.4 1.90172 333.12 1.46174 348.74 2.35174C351.66 2.58174 355.48 7.30172 357.18 10.7717C365.71 28.1917 373.69 45.9517 382.01 63.4717C383.24 65.9517 385.72 67.7517 387.62 69.8817C389.31 67.8517 391.44 65.9517 392.57 63.7017C401.23 45.9517 409.87 28.1817 418.07 10.3317C420.77 4.37172 424.59 2.13174 430.99 2.23174C445.38 2.58174 459.76 2.35174 476.39 2.35174L476.41 2.36175Z" fill="#90137B"/>
<path d="M317.98 165.634C300.68 119.444 282.93 73.4945 265.28 27.5345C252.93 -4.4855 258.43 2.1445 227.76 1.4745C212.58 1.1245 212.48 1.57451 206.97 15.5145C186.4 67.6445 165.85 119.775 145.16 171.925C136.74 193.265 134.27 193.165 159.1 193.045C184.82 193.045 184.94 193.165 194.49 169.675C196.63 164.395 199.66 161.925 205.51 162.035C223.7 162.255 242.02 162.475 260.23 162.255C273.15 162.035 271.69 173.154 274.95 180.344C276.47 183.794 275.51 185.755 273.63 187.115C290.68 180.425 309.31 177.084 328.66 177.644C323.52 176.094 320.37 172.115 317.99 165.625L317.98 165.634ZM247.98 121.925C238.1 122.375 228.2 122.375 218.32 121.925C216.74 121.805 213.6 117.985 213.94 116.755C219.56 99.8945 225.74 83.1545 231.81 66.4045C231.91 65.9645 232.82 65.8445 235.52 64.3845C241.36 82.2545 246.98 99.3345 252.15 116.634C252.6 117.874 249.57 121.915 247.99 121.915L247.98 121.925Z" fill="#90137B"/>
<path d="M722.6 225.183C734.85 225.293 735.86 226.753 731.36 237.883C716.3 274.403 701.13 310.803 686.19 347.213C677.99 367.213 669.9 387.103 662.03 407.213C659.33 414.183 655.18 417.553 647.42 417.213C611.01 415.413 620.12 423.393 606.74 389.123C603.26 380.133 599.66 371.253 596.07 362.273L592.47 362.613C587.53 375.423 582.36 388.233 577.53 401.043C571.69 416.213 571.35 416.773 554.72 416.433C527.98 415.873 531.69 421.153 521.01 392.833C500.9 339.793 480.9 286.873 460.78 233.843C457.52 225.533 458.53 223.953 467.3 223.843C477.75 223.733 488.31 224.293 498.76 223.843C506.74 223.393 510.45 226.873 512.81 234.073C523.93 268.343 535.28 302.503 546.74 336.663C547.53 338.913 549.55 340.823 551.01 342.953C552.47 340.933 554.61 339.023 555.39 336.773C566.51 302.503 577.53 268.123 588.2 233.733C590.33 226.993 593.82 224.183 600.78 224.403C612.13 224.743 623.59 224.623 635.05 224.623C642.13 224.513 644.6 227.093 641.9 234.283C635.38 251.813 628.64 269.453 623.02 287.323C621.33 292.713 621.67 299.343 623.02 304.963C625.49 315.073 629.31 324.853 632.8 334.743C633.92 337.893 635.5 340.813 637.97 346.433C640.78 340.143 642.91 336.323 644.37 332.273C656.39 299.573 668.42 266.993 680.1 234.183C682.57 227.103 686.62 224.633 693.81 224.973C703.36 225.423 713.02 225.083 722.58 225.193L722.6 225.183ZM161.91 222.033C168.31 221.813 171.57 224.053 171.57 231.023C171.12 289.223 170.78 347.433 170.56 405.633C170.56 411.363 168.2 414.173 162.25 414.063C150.9 413.843 139.44 413.613 127.98 413.953C120.56 414.063 117.75 409.123 114.72 404.063C95.73 372.373 76.74 340.693 57.64 309.003C55.84 306.083 53.82 303.163 51.8 300.243L49.22 300.693C48.77 304.063 47.87 307.323 47.87 310.583C47.53 341.033 47.08 371.593 47.2 402.043C47.2 410.803 44.62 414.403 35.51 413.733C26.86 413.063 18.21 413.283 9.55 413.513C3.03 413.623 0 410.933 0 404.183C0.45 346.203 0.790002 288.333 1.01 230.473C1.01 223.733 3.93 221.143 10.56 221.373C21.68 221.713 32.81 221.823 43.93 221.483C51.01 221.263 55.28 224.063 58.87 230.023C76.96 259.463 95.28 288.673 113.48 318.003C115.17 320.703 117.19 323.283 118.99 325.873L121.46 325.423C122.02 322.053 122.92 318.793 122.92 315.423C123.26 288.003 123.71 260.593 123.71 233.173C123.71 224.863 126.52 221.373 135.06 221.933C143.94 222.493 152.93 222.273 161.91 222.043V222.033ZM12.35 192.373C4.48 192.713 2.24 189.343 2.57 181.813C2.91 153.163 2.68 124.503 2.68 95.8528H3.58C3.58 67.5328 3.8 39.2228 3.47 10.9028C3.36 3.03278 5.94 -0.107215 14.14 0.00278518C40.66 0.562785 67.29 0.112783 93.81 0.562783C125.72 1.01278 151.34 28.3128 151.9 61.9128C152.46 94.9428 128.08 122.813 96.39 124.723C85.04 125.393 73.47 125.283 62.12 124.833C54.37 124.613 51.67 127.753 51.78 135.173C52 150.793 51.44 166.523 51.56 182.253C51.56 189.673 48.86 192.923 41.11 192.483C31.56 192.033 21.9 191.923 12.34 192.373H12.35ZM75.16 85.4028H80.67C89.55 85.1828 95.73 80.6828 99.55 72.9328C107.08 57.5428 96.97 40.1228 79.77 40.1228C48.53 40.1228 52.69 35.9628 52.13 62.2628C52.13 89.1128 49.66 85.0728 75.16 85.4128V85.4028Z" fill="#90137B"/>
<defs>
<linearGradient id="paint0_linear_2651_20" x1="187.22" y1="314.721" x2="463.53" y2="314.721" gradientUnits="userSpaceOnUse">
<stop stop-color="#E83762"/>
<stop offset="1" stop-color="#9A1F81"/>
</linearGradient>
</defs>
</svg>
